<svg width="1247" height="1247" viewBox="0 0 1247 1247" fill="none" xmlns="http://www.w3.org/2000/svg">
<g clip-path="url(#clip0_164_2185)">
<path d="M623.888 904.703C779.53 904.703 905.703 778.53 905.703 622.888C905.703 467.246 779.53 341.073 623.888 341.073C468.246 341.073 342.073 467.246 342.073 622.888C342.073 778.53 468.246 904.703 623.888 904.703Z" stroke="white" stroke-opacity="0.17"/>
<path d="M625.112 990.439C828.105 990.439 992.663 825.881 992.663 622.888C992.663 419.895 828.105 255.337 625.112 255.337C422.119 255.337 257.561 419.895 257.561 622.888C257.561 825.881 422.119 990.439 625.112 990.439Z" stroke="white" stroke-opacity="0.17"/>
<path d="M624.5 1072.5C872.476 1072.5 1073.5 871.476 1073.5 623.5C1073.5 375.524 872.476 174.5 624.5 174.5C376.524 174.5 175.5 375.524 175.5 623.5C175.5 871.476 376.524 1072.5 624.5 1072.5Z" stroke="white" stroke-opacity="0.17"/>
<path d="M624 1165.5C923.062 1165.5 1165.5 923.062 1165.5 624C1165.5 324.938 923.062 82.5 624 82.5C324.938 82.5 82.5 324.938 82.5 624C82.5 923.062 324.938 1165.5 624 1165.5Z" stroke="white" stroke-opacity="0.17"/>
<path d="M623.5 1246.5C967.573 1246.5 1246.5 967.573 1246.5 623.5C1246.5 279.427 967.573 0.5 623.5 0.5C279.427 0.5 0.5 279.427 0.5 623.5C0.5 967.573 279.427 1246.5 623.5 1246.5Z" stroke="white" stroke-opacity="0.17"/>
<path d="M625.725 817.743C733.002 817.743 819.968 730.777 819.968 623.5C819.968 516.222 733.002 429.257 625.725 429.257C518.447 429.257 431.482 516.222 431.482 623.5C431.482 730.777 518.447 817.743 625.725 817.743Z" stroke="white" stroke-opacity="0.17"/>
<path d="M625.725 818.243C733.279 818.243 820.468 731.053 820.468 623.5C820.468 515.946 733.279 428.757 625.725 428.757C518.171 428.757 430.982 515.946 430.982 623.5C430.982 731.053 518.171 818.243 625.725 818.243Z" fill="#252532"/>
<path d="M625.725 817.743C733.002 817.743 819.968 730.777 819.968 623.5C819.968 516.222 733.002 429.257 625.725 429.257C518.447 429.257 431.482 516.222 431.482 623.5C431.482 730.777 518.447 817.743 625.725 817.743Z" stroke="white" stroke-opacity="0.17"/>
</g>
<defs>
<clipPath id="clip0_164_2185">
<rect width="1247" height="1247" fill="white"/>
</clipPath>
</defs>
</svg>
