<svg width="20" height="20" viewBox="0 0 20 20" fill="none" xmlns="http://www.w3.org/2000/svg">
<path fill-rule="evenodd" clip-rule="evenodd" d="M5.54797 1.66744C6.4788 1.67994 7.14213 2.37744 7.9813 3.25994C8.1888 3.47744 8.41297 3.71494 8.6638 3.96494C9.87963 5.18161 9.5338 6.17411 9.25463 6.97078C8.9513 7.83994 8.6888 8.58994 10.2605 10.1616C11.8321 11.7333 12.5813 11.4708 13.4496 11.1649C14.2471 10.8866 15.2371 10.5383 16.4555 11.7549C16.703 12.0024 16.9363 12.2241 17.153 12.4299C18.0388 13.2733 18.7388 13.9391 18.7506 14.8724C18.7596 15.6674 18.2763 16.4791 17.083 17.6724L16.5546 17.3141L17.0021 17.7499C16.738 18.0208 16.0355 18.7424 14.6596 18.7508H14.6346C12.558 18.7508 9.85047 17.0974 6.58713 13.8349C3.31047 10.5591 1.65463 7.84328 1.66706 5.76244C1.67463 4.38744 2.39547 3.68328 2.6663 3.41911L2.68942 3.39386L2.74547 3.33744C3.9413 2.14161 4.76297 1.64994 5.54797 1.66744ZM5.53213 2.91744H5.52547C5.15125 2.91744 4.58294 3.29244 3.79032 4.06236L3.63116 4.21866L3.63297 4.21828C3.63297 4.21828 3.61937 4.23388 3.59619 4.25752L3.54047 4.31328C3.3388 4.50911 2.9213 4.91661 2.91709 5.76911C2.91047 6.96161 3.69463 9.17578 7.47047 12.9508C11.228 16.7074 13.4388 17.5008 14.6346 17.5008H14.6521C15.5046 17.4958 15.9113 17.0783 16.1071 16.8774C16.1663 16.8166 16.2146 16.7708 16.2488 16.7433C17.0796 15.9074 17.5046 15.2866 17.5005 14.8874C17.4955 14.4808 16.9896 14.0008 16.2905 13.3349C16.068 13.1241 15.8263 12.8933 15.5713 12.6383C14.9096 11.9791 14.5838 12.0916 13.863 12.3449C12.8671 12.6941 11.503 13.1724 9.37713 11.0449C7.25047 8.91911 7.72713 7.55494 8.07463 6.55828C8.3263 5.83828 8.4413 5.51078 7.78047 4.84911C7.52213 4.59078 7.28963 4.34578 7.07547 4.12078C6.4138 3.42578 5.9363 2.92328 5.53213 2.91744ZM12.7055 4.63203C14.4397 4.96869 15.7789 6.30703 16.1164 8.04203C16.1822 8.38203 15.9614 8.70953 15.623 8.77536C15.5822 8.78286 15.5422 8.78702 15.5022 8.78702C15.2089 8.78702 14.948 8.58036 14.8897 8.28203C14.6497 7.04869 13.6989 6.09786 12.4672 5.85869C12.128 5.79286 11.9072 5.46536 11.9731 5.12619C12.0389 4.78703 12.3722 4.56536 12.7055 4.63203ZM12.6556 1.67219C16.054 2.04969 18.6931 4.68553 19.074 8.08303C19.1123 8.42636 18.8656 8.73553 18.5231 8.77386C18.4998 8.77636 18.4756 8.77803 18.4523 8.77803C18.1381 8.77803 17.8681 8.54219 17.8323 8.22303C17.5165 5.40969 15.3315 3.22636 12.5173 2.91386C12.1748 2.87553 11.9273 2.56719 11.9656 2.22386C12.0031 1.88136 12.309 1.62886 12.6556 1.67219Z" fill="#B0B0B2"/>
</svg>
