<svg width="15" height="17" viewBox="0 0 15 17" fill="none" xmlns="http://www.w3.org/2000/svg">
<path fill-rule="evenodd" clip-rule="evenodd" d="M7.20801 0.666992C10.9988 0.666992 14.083 3.77449 14.083 7.59449C14.083 12.2903 8.70301 16.917 7.20801 16.917C5.71301 16.917 0.333008 12.2903 0.333008 7.59449C0.333008 3.77449 3.41717 0.666992 7.20801 0.666992ZM7.20801 1.91699C4.10634 1.91699 1.58301 4.46449 1.58301 7.59449C1.58301 11.577 6.26967 15.457 7.20801 15.6637C8.14634 15.4562 12.833 11.5762 12.833 7.59449C12.833 4.46449 10.3097 1.91699 7.20801 1.91699ZM7.20884 4.83366C8.70217 4.83366 9.91717 6.04866 9.91717 7.54283C9.91717 9.03616 8.70217 10.2503 7.20884 10.2503C5.71551 10.2503 4.50051 9.03616 4.50051 7.54283C4.50051 6.04866 5.71551 4.83366 7.20884 4.83366ZM7.20884 6.08366C6.40467 6.08366 5.75051 6.73783 5.75051 7.54283C5.75051 8.34699 6.40467 9.00033 7.20884 9.00033C8.01301 9.00033 8.66717 8.34699 8.66717 7.54283C8.66717 6.73783 8.01301 6.08366 7.20884 6.08366Z" fill="#B0B0B2"/>
</svg>
