<svg width="48" height="48" viewBox="0 0 48 48" fill="none" xmlns="http://www.w3.org/2000/svg">
<g clip-path="url(#clip0_84_3523)">
<mask id="mask0_84_3523" style="mask-type:luminance" maskUnits="userSpaceOnUse" x="0" y="0" width="48" height="48">
<path d="M0 3.8147e-06H48V48H0V3.8147e-06Z" fill="white"/>
</mask>
<g mask="url(#mask0_84_3523)">
<path fill-rule="evenodd" clip-rule="evenodd" d="M39.797 40.1621C39.797 40.5504 40.1118 40.8652 40.5001 40.8652H43.2069C45.8562 40.8652 48 38.7111 48 36.0587V16.4756C48 13.8232 45.8562 11.669 43.2069 11.669H32.429C32.0406 11.669 31.7258 11.9838 31.7258 12.3722C31.7258 12.7605 32.0406 13.0753 32.429 13.0753H43.2069C45.0752 13.0753 46.5937 14.5954 46.5937 16.4756V36.0587C46.5937 37.9388 45.0752 39.459 43.2069 39.459H40.5001C40.1118 39.459 39.797 39.7738 39.797 40.1621Z" fill="url(#paint0_linear_84_3523)"/>
<path fill-rule="evenodd" clip-rule="evenodd" d="M6.56255 47.9381C6.81494 48.0516 7.11043 48.0065 7.31748 47.8229L15.1638 40.8649H36.3454C36.7337 40.8649 37.0485 40.5501 37.0485 40.1617C37.0485 39.7734 36.7337 39.4586 36.3454 39.4586H14.897C14.725 39.4586 14.5591 39.5216 14.4305 39.6357L7.55409 45.7336V40.1617C7.55409 39.7734 7.23929 39.4586 6.85097 39.4586H4.79306C2.92484 39.4586 1.40625 37.9385 1.40625 36.0583V16.4753C1.40625 14.5952 2.92486 13.0749 4.79306 13.0749H15.3665C15.7548 13.0749 16.0696 12.7601 16.0696 12.3718C16.0696 11.9835 15.7548 11.6687 15.3665 11.6687H4.79306C2.14383 11.6687 0 13.8229 0 16.4753V36.0583C0 38.7108 2.14385 40.8649 4.79306 40.8649H6.14784V47.2969C6.14784 47.5736 6.31017 47.8246 6.56255 47.9381Z" fill="url(#paint1_linear_84_3523)"/>
<path fill-rule="evenodd" clip-rule="evenodd" d="M7.53101 22.0127C7.53101 22.401 7.84581 22.7158 8.23413 22.7158H39.7658C40.1541 22.7158 40.4689 22.401 40.4689 22.0127C40.4689 21.6244 40.1541 21.3096 39.7658 21.3096H8.23413C7.84581 21.3096 7.53101 21.6244 7.53101 22.0127Z" fill="url(#paint2_linear_84_3523)"/>
<path fill-rule="evenodd" clip-rule="evenodd" d="M7.53101 26.7656C7.53101 27.154 7.84581 27.4688 8.23413 27.4688H39.7658C40.1541 27.4688 40.4689 27.154 40.4689 26.7656C40.4689 26.3773 40.1541 26.0625 39.7658 26.0625H8.23413C7.84581 26.0625 7.53101 26.3773 7.53101 26.7656Z" fill="url(#paint3_linear_84_3523)"/>
<path fill-rule="evenodd" clip-rule="evenodd" d="M7.53101 31.5176C7.53101 31.9059 7.84581 32.2207 8.23413 32.2207H27.1556C27.5439 32.2207 27.8587 31.9059 27.8587 31.5176C27.8587 31.1293 27.5439 30.8145 27.1556 30.8145H8.23413C7.84581 30.8145 7.53101 31.1293 7.53101 31.5176Z" fill="url(#paint4_linear_84_3523)"/>
<path fill-rule="evenodd" clip-rule="evenodd" d="M14.4196 9.58082C14.4196 14.8719 18.7089 19.1611 24 19.1611C29.2911 19.1611 33.5804 14.8719 33.5804 9.58082C33.5804 4.28975 29.2911 0.000415802 24 0.000415802C22.3015 0.000415802 20.7042 0.443054 19.3195 1.2198C18.9808 1.40978 18.8602 1.83834 19.0502 2.17702C19.2402 2.51571 19.6688 2.63626 20.0074 2.44628C21.1875 1.78434 22.5486 1.40667 24 1.40667C28.5145 1.40667 32.1741 5.06639 32.1741 9.58082C32.1741 14.0952 28.5145 17.7549 24 17.7549C19.4855 17.7549 15.8258 14.0952 15.8258 9.58082C15.8258 7.74226 16.432 6.0473 17.4557 4.68215C17.6887 4.37146 17.6257 3.93075 17.315 3.69778C17.0043 3.46482 16.5636 3.52782 16.3306 3.8385C15.1307 5.43865 14.4196 7.4277 14.4196 9.58082Z" fill="url(#paint5_linear_84_3523)"/>
<path fill-rule="evenodd" clip-rule="evenodd" d="M18.436 15.5657C19.6192 13.7446 21.6692 12.5419 23.9998 12.5419C26.2781 12.5419 28.302 13.7375 29.5409 15.5871C28.0834 16.9329 26.1386 17.7549 24 17.7549C21.8501 17.7549 19.8959 16.9242 18.436 15.5657ZM17.0406 16.1613C18.7857 18.0063 21.2576 19.1611 24 19.1611C26.7338 19.1611 29.1987 18.0134 30.9429 16.1787C31.1565 15.954 31.1978 15.6159 31.0444 15.3464C29.6212 12.8461 27.0151 11.1357 23.9998 11.1357C20.9466 11.1357 18.2936 12.8389 16.9336 15.3425C16.7883 15.6098 16.8315 15.9403 17.0406 16.1613Z" fill="url(#paint6_linear_84_3523)"/>
<path fill-rule="evenodd" clip-rule="evenodd" d="M19.8708 8.4364C19.8708 10.7168 21.7194 12.5654 23.9999 12.5654C26.2803 12.5654 28.1289 10.7168 28.1289 8.4364C28.1289 6.1559 26.2803 4.30737 23.9999 4.30737C21.7194 4.30737 19.8708 6.15592 19.8708 8.4364ZM23.9999 11.1592C22.4961 11.1592 21.2771 9.94015 21.2771 8.4364C21.2771 6.93257 22.496 5.71362 23.9999 5.71362C25.5036 5.71362 26.7227 6.93258 26.7227 8.4364C26.7227 9.94014 25.5036 11.1592 23.9999 11.1592Z" fill="url(#paint7_linear_84_3523)"/>
</g>
</g>
<defs>
<linearGradient id="paint0_linear_84_3523" x1="31.7258" y1="26.2671" x2="48" y2="26.2671" gradientUnits="userSpaceOnUse">
<stop stop-color="#0CBAF1"/>
<stop offset="1" stop-color="#E95CE9"/>
</linearGradient>
<linearGradient id="paint1_linear_84_3523" x1="0" y1="29.8343" x2="37.0485" y2="29.8343" gradientUnits="userSpaceOnUse">
<stop stop-color="#0CBAF1"/>
<stop offset="1" stop-color="#E95CE9"/>
</linearGradient>
<linearGradient id="paint2_linear_84_3523" x1="7.53101" y1="22.0127" x2="40.4689" y2="22.0127" gradientUnits="userSpaceOnUse">
<stop stop-color="#0CBAF1"/>
<stop offset="1" stop-color="#E95CE9"/>
</linearGradient>
<linearGradient id="paint3_linear_84_3523" x1="7.53101" y1="26.7656" x2="40.4689" y2="26.7656" gradientUnits="userSpaceOnUse">
<stop stop-color="#0CBAF1"/>
<stop offset="1" stop-color="#E95CE9"/>
</linearGradient>
<linearGradient id="paint4_linear_84_3523" x1="7.53101" y1="31.5176" x2="27.8587" y2="31.5176" gradientUnits="userSpaceOnUse">
<stop stop-color="#0CBAF1"/>
<stop offset="1" stop-color="#E95CE9"/>
</linearGradient>
<linearGradient id="paint5_linear_84_3523" x1="14.4196" y1="9.58077" x2="33.5804" y2="9.58077" gradientUnits="userSpaceOnUse">
<stop stop-color="#0CBAF1"/>
<stop offset="1" stop-color="#E95CE9"/>
</linearGradient>
<linearGradient id="paint6_linear_84_3523" x1="16.8483" y1="15.1484" x2="31.1365" y2="15.1484" gradientUnits="userSpaceOnUse">
<stop stop-color="#0CBAF1"/>
<stop offset="1" stop-color="#E95CE9"/>
</linearGradient>
<linearGradient id="paint7_linear_84_3523" x1="19.8708" y1="8.4364" x2="28.1289" y2="8.4364" gradientUnits="userSpaceOnUse">
<stop stop-color="#0CBAF1"/>
<stop offset="1" stop-color="#E95CE9"/>
</linearGradient>
<clipPath id="clip0_84_3523">
<rect width="48" height="48" fill="white"/>
</clipPath>
</defs>
</svg>
